PathFileType	4	(X/Y/Z)	C:/Users/opensim2020/Desktop/walking_exp_matlab/subject01_walking15_straight_02.trc																																																																																																																															
DataRate	CameraRate	NumFrames	NumMarkers	Units	OrigDataRate	OrigDataStartFrame	OrigNumFrames																																																																																																																											
100	100	6	43	mm	100	1263	135																																																																																																																											
Frame#	Time	LFHD			RFHD			LBHD			RBHD			C7			T10			CLAV			STRN			RBAK			LSHO			LUPA			LELB			LFRM			LWRA			LWRB			LFIN			RSHO			RUPA			RELB			RFRM			RWRA			RWRB			RFIN			LASI			RASI			LPSI			RPSI			LTHI			LKNE			LTIB			LANK			LHEE			LTOE			RTHI			RKNE			RTIB			RANK			RHEE			RTOE			*39			*40			*41			*42		
		X1	Y1	Z1	X2	Y2	Z2	X3	Y3	Z3	X4	Y4	Z4	X5	Y5	Z5	X6	Y6	Z6	X7	Y7	Z7	X8	Y8	Z8	X9	Y9	Z9	X10	Y10	Z10	X11	Y11	Z11	X12	Y12	Z12	X13	Y13	Z13	X14	Y14	Z14	X15	Y15	Z15	X16	Y16	Z16	X17	Y17	Z17	X18	Y18	Z18	X19	Y19	Z19	X20	Y20	Z20	X21	Y21	Z21	X22	Y22	Z22	X23	Y23	Z23	X24	Y24	Z24	X25	Y25	Z25	X26	Y26	Z26	X27	Y27	Z27	X28	Y28	Z28	X29	Y29	Z29	X30	Y30	Z30	X31	Y31	Z31	X32	Y32	Z32	X33	Y33	Z33	X34	Y34	Z34	X35	Y35	Z35	X36	Y36	Z36	X37	Y37	Z37	X38	Y38	Z38	X39	Y39	Z39	X40	Y40	Z40	X41	Y41	Z41	X42	Y42	Z42	X43	Y43	Z43
																																																																																																																																		
119	1.18	598.44373	1653.47876	984.73956	631.3476	1663.89478	1093.26184	489.22104	1600.90417	1016.20776	522.17084	1611.13892	1132.01965	469.091	1414.54346	1053.12427	430.15286	1121.59473	1066.17615	615.29108	1347.99939	1058.04041	656.12531	1192.13232	1055.6123	411.68317	1224.11267	1128.31421	558.39532	1382.21033	896.34088	545.11127	1204.59277	801.67926	558.87177	1052.82617	783.2265	664.13568	1000.5932	762.74768	799.58923	986.79645	780.60541	769.53198	939.6355	762.26184	851.38922	934.1098	746.35876	548.297	1383.23206	1206.48352	442.07629	1201.13867	1297.94934	420.87863	1080.99207	1305.08118	400.6322	967.23303	1342.78198	429.91876	825.98944	1336.43726	387.31528	847.02521	1370.58569	390.55234	759.07813	1377.65515	598.65381	921.57623	949.41522	618.07892	921.35095	1166.40918	419.09399	930.01166	1024.00427	434.2468	925.58197	1166.47937	492.35577	595.11169	900.85962	444.6171	465.29373	917.92657	333.00226	309.2023	915.83203	231.81404	114.15502	968.57294	180.01276	104.01315	1021.55719	354.09338	32.79454	963.15973	647.49194	601.78363	1257.10034	721.2002	462.72299	1238.43457	728.68292	289.8114	1266.06555	788.91309	83.13151	1242.98376	760.87756	26.14087	1194.96924	935.08118	92.04229	1240.71472	612.88177	1695.24597	1071.83765	-1972.79993	1024.08276	3103.07104	-2012.99829	1022.44043	3138.69287	NaN	NaN	NaN
120	1.19	610.94635	1652.30151	986.26953	644.32227	1662.87537	1094.60583	501.75757	1599.96069	1018.29663	535.24695	1610.17529	1133.92468	481.98459	1413.20667	1054.9519	444.31372	1120.0448	1067.64441	628.4054	1347.18018	1059.46313	669.98291	1191.57288	1056.745	425.54758	1222.42664	1129.80493	570.95471	1381.52246	897.99939	557.79352	1204.15991	802.92084	571.9101	1052.59631	783.70618	677.77124	1001.87677	763.02039	813.25903	990.15601	780.86743	784.00061	942.54156	762.27246	865.94958	938.54974	746.33173	561.64911	1382.02502	1208.18103	455.06522	1200.09595	1299.19263	433.73441	1080.04138	1306.34204	412.72504	966.4455	1343.91211	440.75131	824.77625	1337.60181	398.4754	846.2644	1371.59338	401.05771	758.25037	1378.70947	612.65662	920.3595	949.854	633.49255	920.33313	1166.63721	433.6069	928.90564	1026.08508	448.97171	924.93121	1168.42896	505.10568	594.15381	901.46838	456.66708	464.56552	918.28308	341.72263	310.83774	915.71429	235.52393	118.43489	967.61957	183.09448	109.91972	1020.22833	354.56812	32.83771	963.05939	665.11597	601.80786	1255.93201	735.49036	460.84238	1238.78625	741.46814	287.69031	1265.81055	799.06586	80.17515	1241.75122	769.91901	23.87746	1194.12061	945.22021	87.98554	1238.03113	625.78156	1694.19897	1073.31531	-1972.87	1024.07251	3102.66772	-2013.11401	1022.2464	3138.55664	NaN	NaN	NaN
121	1.2	623.86371	1651.38757	987.80676	657.25879	1661.87158	1095.7832	514.34857	1598.92566	1020.4129	548.59155	1609.02148	1135.51868	495.05319	1411.70618	1057.12097	458.67624	1118.43909	1069.1344	641.65662	1346.44543	1061.12244	683.98456	1190.98718	1057.93298	439.55542	1220.73755	1131.29468	583.51221	1380.69507	899.81708	570.37482	1203.71716	804.15808	584.6853	1052.32959	784.07916	691.05878	1002.87195	763.38214	826.50256	992.72968	781.28571	797.81915	944.83362	762.40656	879.82782	942.15002	746.32593	575.08295	1380.87048	1210.10242	468.39844	1198.83362	1300.45728	446.93307	1078.95374	1307.65894	425.42966	965.49121	1345.15234	452.87546	823.9248	1338.96729	410.27948	845.27905	1372.82141	412.34488	757.31927	1379.8186	627.37683	919.34204	950.51434	649.09613	919.44135	1167.1001	448.35626	927.78839	1028.27979	464.69034	924.05658	1170.28125	518.53302	592.97882	902.32233	469.52509	463.69806	918.66638	351.10995	312.53217	915.54047	239.41789	123.00032	966.56012	186.84346	116.1196	1018.97748	355.10672	32.94506	963.10748	682.97772	601.24231	1254.6991	750.05981	458.94	1238.72253	753.3551	285.02405	1264.78308	807.18988	77.02168	1240.18311	775.60602	23.08588	1193.3291	952.98712	82.36092	1235.31812	638.68433	1693.17859	1074.74573	-1972.98389	1024.1134	3102.40405	-2013.10217	1022.44421	3138.50757	NaN	NaN	NaN
122	1.21	635.59113	1650.14355	989.2478	670.17682	1660.78833	1097.02966	526.83331	1597.77112	1022.65491	561.74445	1608.05103	1137.58789	508.12207	1410.1156	1059.06201	473.12845	1116.71631	1070.69824	654.96869	1345.64209	1062.74597	698.04486	1190.41162	1059.16626	453.69296	1218.90405	1132.86523	596.16998	1379.80835	901.66949	582.87463	1203.29492	805.56213	596.50336	1052.34082	784.61322	704.22321	1003.79858	763.91315	839.30408	994.63666	781.75	811.13464	946.60748	762.52747	893.58154	944.81476	746.52795	588.70227	1379.62646	1211.99414	482.03369	1197.46167	1301.89233	460.64871	1077.66028	1308.9635	438.70944	964.46436	1346.64307	465.42978	822.72156	1340.34973	422.81763	844.51361	1374.23682	424.38419	756.22559	1381.14771	641.78625	917.88763	951.13092	664.91681	918.60248	1167.86816	463.36011	926.52875	1030.42041	480.37128	922.87048	1172.06677	532.56073	591.6377	903.31335	482.96774	462.521	919.14893	360.88724	314.32687	915.16937	243.55	127.78028	965.8562	191.27179	122.84994	1017.89667	355.59415	33.18835	963.20105	700.47516	601.02667	1253.52417	764.51941	456.95789	1238.18188	764.44434	282.26987	1263.47192	813.6048	73.98616	1238.63416	779.13403	23.1586	1192.66687	959.6319	74.51094	1232.25085	651.74298	1692.29688	1076.13635	-1972.81677	1024.70227	3103.04907	-2012.96875	1022.24731	3138.83789	NaN	NaN	NaN
123	1.22	647.85712	1649.00232	990.7738	683.11932	1659.83655	1098.34351	539.31042	1596.68933	1024.87402	574.95056	1607.04431	1139.59424	521.04883	1408.61218	1060.79089	487.79843	1114.91833	1072.33789	668.41968	1344.79846	1064.39453	712.35376	1189.85767	1060.43701	467.87476	1216.94031	1134.58984	608.6731	1378.93579	903.60657	595.23706	1202.70178	807.04181	608.47833	1051.85535	785.20563	716.12927	1004.05707	764.31073	851.63727	995.81573	782.29584	823.82458	947.66089	762.82806	905.79816	946.50885	746.66577	602.47485	1378.3175	1213.81604	496.02524	1195.84558	1303.44592	474.76398	1076.16931	1310.45007	452.43875	963.06207	1347.80505	478.71805	821.30151	1341.78271	436.21744	843.0838	1375.35693	437.29071	754.86517	1382.47034	656.86444	916.52753	952.03162	680.50818	917.75299	1168.79468	478.21103	925.41479	1032.47864	496.01709	921.72137	1174.15063	547.30933	590.17828	904.30774	497.30466	461.12524	919.65002	371.42804	316.099	915.05212	248.91	132.75018	964.82434	196.67314	129.91096	1016.81207	356.17068	33.27882	963.21967	717.67322	599.58954	1252.70679	779.15155	454.98544	1238.13403	774.98572	280.06567	1261.25598	819.77344	72.69403	1237.9823	780.17914	24.37309	1192.0813	965.32227	62.5602	1229.68555	664.44104	1691.16248	1077.50146	-1972.86206	1024.62231	3102.97168	-2013.0686	1022.30817	3138.65552	NaN	NaN	NaN
124	1.23	660.26605	1648.67969	992.08099	696.17047	1659.52222	1099.69165	551.92084	1595.92322	1027.0531	588.34155	1606.40784	1141.60352	533.66284	1407.67859	1063.28772	502.52402	1113.48352	1074.14294	681.8504	1344.18604	1066.00757	726.50006	1189.6897	1061.64514	482.1496	1215.0498	1136.50281	620.88849	1378.19617	905.27448	607.5191	1202.15869	808.67096	620.25732	1051.36646	786.05841	728.15265	1004.12201	764.8949	863.64911	996.31384	782.91168	835.95514	948.16498	763.09741	917.96106	947.31671	747.10736	616.31921	1377.16309	1215.83374	510.45493	1194.16345	1305.229	489.36938	1074.55151	1312.06018	466.82486	961.48126	1349.27576	492.47064	819.36621	1343.13049	450.16415	841.57318	1376.69812	451.03287	753.41895	1383.84558	672.03174	915.15948	953.18457	695.76404	917.16022	1169.73804	492.98193	924.40277	1034.23206	510.7355	920.96191	1176.96936	562.59155	588.37506	905.5343	512.32751	459.59119	920.37366	382.72189	317.92804	914.95813	254.98111	137.98595	963.69275	203.04791	137.74998	1015.39941	356.93628	33.47367	963.3067	733.40918	598.93207	1253.14795	794.5744	454.47366	1238.19238	786.94781	280.57874	1259.44092	825.34894	72.50722	1238.25281	782.49249	26.87533	1193.57153	970.0672	53.37317	1227.18738	677.10547	1690.4071	1078.88867	-1973.02454	1024.11951	3102.31079	-2013.17322	1022.2196	3138.47827	NaN	NaN	NaN
